<svg width="108" height="30" viewBox="0 0 108 30" fill="none" xmlns="http://www.w3.org/2000/svg">
<g filter="url(#filter0_d_61385:196)">
<path d="M35.0547 7.5V9.54688H36.6328V10.6641H35.0547V15.9062C35.0547 16.2448 35.125 16.5 35.2656 16.6719C35.4062 16.8385 35.6458 16.9219 35.9844 16.9219C36.151 16.9219 36.3802 16.8906 36.6719 16.8281V18C36.2917 18.1042 35.9219 18.1562 35.5625 18.1562C34.9167 18.1562 34.4297 17.9609 34.1016 17.5703C33.7734 17.1797 33.6094 16.625 33.6094 15.9062V10.6641H32.0703V9.54688H33.6094V7.5H35.0547ZM39.8984 18H38.4531V9.54688H39.8984V18ZM38.3359 7.30469C38.3359 7.07031 38.4062 6.8724 38.5469 6.71094C38.6927 6.54948 38.9062 6.46875 39.1875 6.46875C39.4688 6.46875 39.6823 6.54948 39.8281 6.71094C39.974 6.8724 40.0469 7.07031 40.0469 7.30469C40.0469 7.53906 39.974 7.73438 39.8281 7.89062C39.6823 8.04688 39.4688 8.125 39.1875 8.125C38.9062 8.125 38.6927 8.04688 38.5469 7.89062C38.4062 7.73438 38.3359 7.53906 38.3359 7.30469ZM47.4375 18C47.3542 17.8333 47.2865 17.5365 47.2344 17.1094C46.5625 17.8073 45.7604 18.1562 44.8281 18.1562C43.9948 18.1562 43.3099 17.9219 42.7734 17.4531C42.2422 16.9792 41.9766 16.3802 41.9766 15.6562C41.9766 14.776 42.3099 14.0938 42.9766 13.6094C43.6484 13.1198 44.5911 12.875 45.8047 12.875H47.2109V12.2109C47.2109 11.7057 47.0599 11.3047 46.7578 11.0078C46.4557 10.7057 46.0104 10.5547 45.4219 10.5547C44.9062 10.5547 44.474 10.6849 44.125 10.9453C43.776 11.2057 43.6016 11.5208 43.6016 11.8906H42.1484C42.1484 11.4688 42.2969 11.0625 42.5938 10.6719C42.8958 10.276 43.3021 9.96354 43.8125 9.73438C44.3281 9.50521 44.8932 9.39062 45.5078 9.39062C46.4818 9.39062 47.2448 9.63542 47.7969 10.125C48.349 10.6094 48.6354 11.2786 48.6562 12.1328V16.0234C48.6562 16.7995 48.7552 17.4167 48.9531 17.875V18H47.4375ZM45.0391 16.8984C45.4922 16.8984 45.9219 16.7812 46.3281 16.5469C46.7344 16.3125 47.0286 16.0078 47.2109 15.6328V13.8984H46.0781C44.3073 13.8984 43.4219 14.4167 43.4219 15.4531C43.4219 15.9062 43.5729 16.2604 43.875 16.5156C44.1771 16.7708 44.5651 16.8984 45.0391 16.8984ZM50.5781 13.7031C50.5781 12.3854 50.8828 11.3385 51.4922 10.5625C52.1016 9.78125 52.9089 9.39062 53.9141 9.39062C54.9453 9.39062 55.75 9.75521 56.3281 10.4844L56.3984 9.54688H57.7188V17.7969C57.7188 18.8906 57.3932 19.7526 56.7422 20.3828C56.0964 21.013 55.2266 21.3281 54.1328 21.3281C53.5234 21.3281 52.9271 21.1979 52.3438 20.9375C51.7604 20.6771 51.3151 20.3203 51.0078 19.8672L51.7578 19C52.3776 19.7656 53.1354 20.1484 54.0312 20.1484C54.7344 20.1484 55.2812 19.9505 55.6719 19.5547C56.0677 19.1589 56.2656 18.6016 56.2656 17.8828V17.1562C55.6875 17.8229 54.8984 18.1562 53.8984 18.1562C52.9089 18.1562 52.1068 17.7578 51.4922 16.9609C50.8828 16.1641 50.5781 15.0781 50.5781 13.7031ZM52.0312 13.8672C52.0312 14.8203 52.2266 15.5703 52.6172 16.1172C53.0078 16.6589 53.5547 16.9297 54.2578 16.9297C55.1693 16.9297 55.8385 16.5156 56.2656 15.6875V11.8281C55.8229 11.0208 55.1589 10.6172 54.2734 10.6172C53.5703 10.6172 53.0208 10.8906 52.625 11.4375C52.2292 11.9844 52.0312 12.7943 52.0312 13.8672ZM59.5234 13.6953C59.5234 12.8672 59.6849 12.1224 60.0078 11.4609C60.3359 10.7995 60.7891 10.2891 61.3672 9.92969C61.9505 9.57031 62.6146 9.39062 63.3594 9.39062C64.5104 9.39062 65.4401 9.78906 66.1484 10.5859C66.862 11.3828 67.2188 12.4427 67.2188 13.7656V13.8672C67.2188 14.6901 67.0599 15.4297 66.7422 16.0859C66.4297 16.737 65.9792 17.2448 65.3906 17.6094C64.8073 17.974 64.1354 18.1562 63.375 18.1562C62.2292 18.1562 61.2995 17.7578 60.5859 16.9609C59.8776 16.1641 59.5234 15.1094 59.5234 13.7969V13.6953ZM60.9766 13.8672C60.9766 14.8047 61.1927 15.5573 61.625 16.125C62.0625 16.6927 62.6458 16.9766 63.375 16.9766C64.1094 16.9766 64.6927 16.6901 65.125 16.1172C65.5573 15.5391 65.7734 14.7318 65.7734 13.6953C65.7734 12.7682 65.5521 12.0182 65.1094 11.4453C64.6719 10.8672 64.0885 10.5781 63.3594 10.5781C62.6458 10.5781 62.0703 10.862 61.6328 11.4297C61.1953 11.9974 60.9766 12.8099 60.9766 13.8672ZM75.125 19.1797H67.9688V18H75.125V19.1797ZM77.8203 18H76.375V6H77.8203V18ZM85.3594 17.1641C84.7969 17.8255 83.9714 18.1562 82.8828 18.1562C81.9818 18.1562 81.2943 17.8958 80.8203 17.375C80.3516 16.849 80.1146 16.0729 80.1094 15.0469V9.54688H81.5547V15.0078C81.5547 16.2891 82.0755 16.9297 83.1172 16.9297C84.2214 16.9297 84.9557 16.5182 85.3203 15.6953V9.54688H86.7656V18H85.3906L85.3594 17.1641ZM92.3594 16.9766C92.875 16.9766 93.3255 16.8203 93.7109 16.5078C94.0964 16.1953 94.3099 15.8047 94.3516 15.3359H95.7188C95.6927 15.8203 95.526 16.2812 95.2188 16.7188C94.9115 17.1562 94.5 17.5052 93.9844 17.7656C93.474 18.026 92.9323 18.1562 92.3594 18.1562C91.2083 18.1562 90.2917 17.7734 89.6094 17.0078C88.9323 16.237 88.5938 15.1849 88.5938 13.8516V13.6094C88.5938 12.7865 88.7448 12.0547 89.0469 11.4141C89.349 10.7734 89.7812 10.276 90.3438 9.92188C90.9115 9.56771 91.5807 9.39062 92.3516 9.39062C93.2995 9.39062 94.0859 9.67448 94.7109 10.2422C95.3411 10.8099 95.6771 11.5469 95.7188 12.4531H94.3516C94.3099 11.9062 94.1016 11.4583 93.7266 11.1094C93.3568 10.7552 92.8984 10.5781 92.3516 10.5781C91.6172 10.5781 91.0469 10.8438 90.6406 11.375C90.2396 11.901 90.0391 12.6641 90.0391 13.6641V13.9375C90.0391 14.9115 90.2396 15.6615 90.6406 16.1875C91.0417 16.7135 91.6146 16.9766 92.3594 16.9766ZM98.7891 10.5703C99.4297 9.78385 100.263 9.39062 101.289 9.39062C103.076 9.39062 103.977 10.3984 103.992 12.4141V18H102.547V12.4062C102.542 11.7969 102.401 11.3464 102.125 11.0547C101.854 10.763 101.43 10.6172 100.852 10.6172C100.383 10.6172 99.9714 10.7422 99.6172 10.9922C99.263 11.2422 98.987 11.5703 98.7891 11.9766V18H97.3438V6H98.7891V10.5703Z" fill="#C4C4CC"/>
<path d="M11.999 5.16653C7.582 5.16653 4 8.76253 4 13.1985C4 16.7465 6.292 19.7565 9.472 20.8195C9.872 20.8935 10.018 20.6455 10.018 20.4325C10.018 20.2415 10.011 19.7365 10.007 19.0665C7.782 19.5515 7.312 17.9895 7.312 17.9895C6.949 17.0615 6.424 16.8145 6.424 16.8145C5.697 16.3165 6.478 16.3265 6.478 16.3265C7.281 16.3835 7.703 17.1545 7.703 17.1545C8.417 18.3815 9.576 18.0275 10.032 17.8215C10.104 17.3025 10.311 16.9485 10.54 16.7475C8.764 16.5445 6.896 15.8555 6.896 12.7785C6.896 11.9015 7.208 11.1845 7.72 10.6225C7.637 10.4195 7.363 9.60253 7.798 8.49753C7.798 8.49753 8.47 8.28153 9.998 9.32053C10.636 9.14253 11.32 9.05353 12.001 9.05053C12.68 9.05453 13.365 9.14253 14.004 9.32153C15.531 8.28253 16.202 8.49853 16.202 8.49853C16.638 9.60453 16.364 10.4205 16.282 10.6235C16.795 11.1855 17.104 11.9025 17.104 12.7795C17.104 15.8645 15.234 16.5435 13.452 16.7425C13.739 16.9905 13.995 17.4805 13.995 18.2295C13.995 19.3035 13.985 20.1695 13.985 20.4325C13.985 20.6475 14.129 20.8975 14.535 20.8185C17.71 19.7545 20 16.7455 20 13.1985C20 8.76253 16.418 5.16653 11.999 5.16653Z" fill="#C4C4CC"/>
</g>
<defs>
<filter id="filter0_d_61385:196" x="0" y="5" width="107.992" height="24.3281" filterUnits="userSpaceOnUse" color-interpolation-filters="sRGB">
<feFlood flood-opacity="0" result="BackgroundImageFix"/>
<feColorMatrix in="SourceAlpha" type="matrix" values="0 0 0 0 0 0 0 0 0 0 0 0 0 0 0 0 0 0 127 0" result="hardAlpha"/>
<feOffset dy="4"/>
<feGaussianBlur stdDeviation="2"/>
<feComposite in2="hardAlpha" operator="out"/>
<feColorMatrix type="matrix" values="0 0 0 0 0 0 0 0 0 0 0 0 0 0 0 0 0 0 0.25 0"/>
<feBlend mode="normal" in2="BackgroundImageFix" result="effect1_dropShadow_61385:196"/>
<feBlend mode="normal" in="SourceGraphic" in2="effect1_dropShadow_61385:196" result="shape"/>
</filter>
</defs>
</svg>
